<svg xmlns="http://www.w3.org/2000/svg" xmlns:xlink="http://www.w3.org/1999/xlink" width="1080" zoomAndPan="magnify" viewBox="0 0 810 809.999993" height="1080" preserveAspectRatio="xMidYMid meet" version="1.0"><defs><clipPath id="9343565403"><path d="M 363 312 L 427 312 L 427 377 L 363 377 Z M 363 312 " clip-rule="nonzero"/></clipPath><clipPath id="0242ef8df2"><path d="M 216.261719 20.25 L 790.238281 216.96875 L 594.007812 789.523438 L 20.03125 592.804688 Z M 216.261719 20.25 " clip-rule="nonzero"/></clipPath><clipPath id="f2a1a6bce2"><path d="M 110.191406 -187.578125 L 990.664062 114.1875 L 688.902344 994.660156 L -191.574219 692.898438 Z M 110.191406 -187.578125 " clip-rule="nonzero"/></clipPath><clipPath id="6db2e3665e"><path d="M 548 352 L 598 352 L 598 403 L 548 403 Z M 548 352 " clip-rule="nonzero"/></clipPath><clipPath id="0db2c66ea9"><path d="M 216.261719 20.25 L 790.238281 216.96875 L 594.007812 789.523438 L 20.03125 592.804688 Z M 216.261719 20.25 " clip-rule="nonzero"/></clipPath><clipPath id="d84d31ee55"><path d="M 110.191406 -187.578125 L 990.664062 114.1875 L 688.902344 994.660156 L -191.574219 692.898438 Z M 110.191406 -187.578125 " clip-rule="nonzero"/></clipPath><clipPath id="377f0c1de1"><path d="M 476 220 L 561 220 L 561 306 L 476 306 Z M 476 220 " clip-rule="nonzero"/></clipPath><clipPath id="4321a5c9cb"><path d="M 216.261719 20.25 L 790.238281 216.96875 L 594.007812 789.523438 L 20.03125 592.804688 Z M 216.261719 20.25 " clip-rule="nonzero"/></clipPath><clipPath id="3ab2132ed7"><path d="M 110.191406 -187.578125 L 990.664062 114.1875 L 688.902344 994.660156 L -191.574219 692.898438 Z M 110.191406 -187.578125 " clip-rule="nonzero"/></clipPath><clipPath id="93333b631e"><path d="M 113 114 L 687 114 L 687 697 L 113 697 Z M 113 114 " clip-rule="nonzero"/></clipPath><clipPath id="f06f71c5a6"><path d="M 216.261719 20.25 L 790.238281 216.96875 L 594.007812 789.523438 L 20.03125 592.804688 Z M 216.261719 20.25 " clip-rule="nonzero"/></clipPath><clipPath id="05e61bcb57"><path d="M 110.191406 -187.578125 L 990.664062 114.1875 L 688.902344 994.660156 L -191.574219 692.898438 Z M 110.191406 -187.578125 " clip-rule="nonzero"/></clipPath></defs><g clip-path="url(#9343565403)"><g clip-path="url(#0242ef8df2)"><g clip-path="url(#f2a1a6bce2)"><path fill="#7037cd" d="M 399.234375 312.253906 L 398.082031 312.816406 L 396.359375 312.226562 L 395.207031 312.792969 L 393.484375 312.203125 L 392.332031 312.769531 L 391.472656 312.472656 L 390.316406 313.039062 L 389.457031 312.746094 L 388.300781 313.308594 L 387.441406 313.015625 L 383.976562 314.710938 L 383.117188 314.417969 L 379.652344 316.113281 L 379.359375 316.972656 L 375.894531 318.667969 L 375.597656 319.527344 L 374.445312 320.09375 L 374.148438 320.953125 L 372.992188 321.519531 L 372.699219 322.378906 L 371.542969 322.945312 L 370.953125 324.664062 L 369.800781 325.230469 L 369.210938 326.949219 L 368.054688 327.515625 L 363.632812 340.414062 L 364.199219 341.570312 L 363.609375 343.289062 L 364.175781 344.445312 L 363.585938 346.164062 L 364.152344 347.320312 L 363.855469 348.179688 L 364.421875 349.335938 L 364.125 350.195312 L 364.691406 351.351562 L 364.398438 352.210938 L 366.660156 356.828125 L 366.363281 357.6875 L 367.496094 360 L 368.355469 360.292969 L 370.050781 363.757812 L 370.910156 364.050781 L 371.476562 365.207031 L 372.335938 365.503906 L 372.902344 366.65625 L 373.761719 366.953125 L 374.328125 368.105469 L 375.1875 368.402344 L 375.75 369.554688 L 378.332031 370.441406 L 378.898438 371.59375 L 391.796875 376.015625 L 392.953125 375.453125 L 394.671875 376.039062 L 395.828125 375.476562 L 397.546875 376.066406 L 398.703125 375.5 L 399.5625 375.792969 L 400.71875 375.230469 L 401.578125 375.523438 L 403.886719 374.394531 L 404.746094 374.6875 L 413.984375 370.164062 L 414.28125 369.304688 L 415.433594 368.742188 L 415.730469 367.878906 L 416.882812 367.316406 L 417.179688 366.457031 L 418.332031 365.890625 L 418.628906 365.03125 L 419.785156 364.464844 L 420.371094 362.746094 L 421.527344 362.179688 L 423 357.878906 L 424.15625 357.3125 L 425.628906 353.011719 L 425.066406 351.859375 L 426.832031 346.699219 L 426.269531 345.542969 L 426.859375 343.824219 L 426.292969 342.667969 L 426.585938 341.808594 L 426.023438 340.652344 L 426.316406 339.792969 L 425.75 338.640625 L 426.046875 337.777344 L 425.480469 336.625 L 425.777344 335.765625 L 423.515625 331.144531 L 423.808594 330.285156 L 422.679688 327.976562 L 421.820312 327.679688 L 420.121094 324.214844 L 419.261719 323.921875 L 418.699219 322.765625 L 417.835938 322.472656 L 417.273438 321.316406 L 416.414062 321.023438 L 415.847656 319.867188 L 414.125 319.277344 L 413.5625 318.121094 L 410.980469 317.238281 L 410.417969 316.082031 Z M 399.234375 312.253906 " fill-opacity="1" fill-rule="nonzero"/></g></g></g><g clip-path="url(#6db2e3665e)"><g clip-path="url(#0db2c66ea9)"><g clip-path="url(#d84d31ee55)"><path fill="#7037cd" d="M 577.433594 353.144531 L 576.28125 353.707031 L 573.699219 352.824219 L 572.542969 353.390625 L 570.824219 352.800781 L 569.667969 353.367188 L 568.808594 353.070312 L 566.5 354.199219 L 565.640625 353.90625 L 557.554688 357.863281 L 557.261719 358.722656 L 556.105469 359.289062 L 555.8125 360.148438 L 554.65625 360.714844 L 554.066406 362.433594 L 552.914062 363 L 552.027344 365.578125 L 550.875 366.144531 L 548.515625 373.023438 L 549.082031 374.179688 L 548.195312 376.761719 L 548.761719 377.914062 L 548.171875 379.636719 L 548.738281 380.789062 L 548.441406 381.648438 L 549.007812 382.804688 L 548.714844 383.664062 L 553.234375 392.902344 L 554.097656 393.199219 L 554.660156 394.351562 L 555.519531 394.648438 L 556.085938 395.800781 L 557.804688 396.390625 L 558.371094 397.546875 L 560.953125 398.429688 L 561.515625 399.585938 L 568.398438 401.945312 L 569.550781 401.378906 L 572.132812 402.261719 L 573.289062 401.699219 L 575.007812 402.285156 L 576.164062 401.722656 L 577.023438 402.015625 L 579.332031 400.886719 L 580.191406 401.179688 L 587.121094 397.789062 L 587.414062 396.929688 L 588.570312 396.363281 L 588.863281 395.503906 L 590.019531 394.9375 L 590.316406 394.078125 L 591.46875 393.511719 L 592.058594 391.792969 L 593.214844 391.226562 L 594.394531 387.789062 L 595.546875 387.222656 L 596.726562 383.78125 L 596.160156 382.628906 L 597.339844 379.1875 L 596.773438 378.03125 L 597.363281 376.3125 L 596.800781 375.15625 L 597.09375 374.296875 L 596.527344 373.140625 L 596.824219 372.28125 L 595.691406 369.972656 L 595.988281 369.113281 L 593.160156 363.339844 L 592.300781 363.042969 L 591.734375 361.890625 L 590.875 361.59375 L 590.3125 360.441406 L 589.449219 360.144531 L 588.886719 358.988281 L 588.023438 358.695312 L 587.460938 357.539062 L 584.878906 356.65625 L 584.316406 355.5 Z M 577.433594 353.144531 " fill-opacity="1" fill-rule="nonzero"/></g></g></g><g clip-path="url(#377f0c1de1)"><g clip-path="url(#4321a5c9cb)"><g clip-path="url(#3ab2132ed7)"><path fill="#7037cd" d="M 529.085938 222.207031 L 527.933594 222.773438 L 522.769531 221.003906 L 521.617188 221.566406 L 519.898438 220.980469 L 518.742188 221.542969 L 517.023438 220.953125 L 515.867188 221.519531 L 515.007812 221.226562 L 513.851562 221.789062 L 512.992188 221.496094 L 511.835938 222.0625 L 510.976562 221.765625 L 509.824219 222.332031 L 508.960938 222.035156 L 506.652344 223.167969 L 505.792969 222.871094 L 495.398438 227.960938 L 495.105469 228.820312 L 492.796875 229.949219 L 492.5 230.8125 L 490.191406 231.941406 L 489.894531 232.800781 L 488.742188 233.367188 L 488.152344 235.085938 L 486.996094 235.652344 L 486.703125 236.511719 L 485.546875 237.078125 L 484.957031 238.796875 L 483.804688 239.363281 L 482.625 242.804688 L 481.46875 243.367188 L 477.046875 256.269531 L 477.613281 257.421875 L 476.433594 260.863281 L 477 262.019531 L 476.410156 263.738281 L 476.976562 264.894531 L 476.679688 265.753906 L 477.246094 266.910156 L 476.65625 268.628906 L 477.222656 269.78125 L 476.925781 270.644531 L 478.058594 272.953125 L 477.761719 273.8125 L 478.894531 276.121094 L 478.597656 276.984375 L 483.683594 287.375 L 484.546875 287.671875 L 485.675781 289.980469 L 486.535156 290.273438 L 487.101562 291.429688 L 487.960938 291.722656 L 488.527344 292.878906 L 489.386719 293.175781 L 489.953125 294.328125 L 490.8125 294.625 L 491.378906 295.777344 L 493.097656 296.367188 L 493.664062 297.523438 L 495.382812 298.113281 L 495.949219 299.265625 L 500.25 300.742188 L 500.8125 301.894531 L 509.414062 304.84375 L 510.570312 304.277344 L 514.871094 305.75 L 516.023438 305.1875 L 517.742188 305.777344 L 518.898438 305.210938 L 520.617188 305.800781 L 521.773438 305.234375 L 522.632812 305.53125 L 523.789062 304.964844 L 524.648438 305.257812 L 525.804688 304.695312 L 526.664062 304.988281 L 527.816406 304.421875 L 528.679688 304.71875 L 532.144531 303.023438 L 533.003906 303.316406 L 541.085938 299.359375 L 541.382812 298.5 L 543.691406 297.371094 L 543.984375 296.507812 L 546.296875 295.378906 L 546.589844 294.519531 L 547.746094 293.953125 L 548.039062 293.09375 L 549.195312 292.527344 L 549.785156 290.808594 L 550.9375 290.242188 L 551.527344 288.523438 L 552.683594 287.957031 L 553.566406 285.378906 L 554.722656 284.8125 L 560.027344 269.332031 L 559.460938 268.175781 L 560.347656 265.597656 L 559.78125 264.441406 L 560.371094 262.722656 L 559.804688 261.566406 L 560.101562 260.707031 L 559.535156 259.550781 L 560.125 257.832031 L 558.992188 255.523438 L 559.289062 254.660156 L 558.722656 253.507812 L 559.019531 252.648438 L 557.324219 249.183594 L 557.617188 248.324219 L 553.660156 240.238281 L 552.800781 239.945312 L 551.667969 237.632812 L 550.808594 237.339844 L 549.679688 235.03125 L 548.820312 234.734375 L 548.253906 233.582031 L 547.394531 233.285156 L 546.828125 232.132812 L 545.96875 231.835938 L 545.402344 230.679688 L 543.683594 230.09375 L 543.117188 228.9375 L 540.539062 228.054688 L 539.972656 226.898438 L 535.671875 225.425781 L 535.105469 224.269531 Z M 529.085938 222.207031 " fill-opacity="1" fill-rule="nonzero"/></g></g></g><g clip-path="url(#93333b631e)"><g clip-path="url(#f06f71c5a6)"><g clip-path="url(#05e61bcb57)"><path fill="#7037cd" d="M 486.199219 125.816406 L 485.042969 126.382812 L 473.863281 122.550781 L 472.707031 123.113281 L 465.828125 120.757812 L 464.671875 121.324219 L 459.511719 119.554688 L 458.355469 120.117188 L 454.058594 118.644531 L 452.902344 119.210938 L 449.460938 118.03125 L 448.308594 118.597656 L 444.867188 117.417969 L 443.710938 117.984375 L 440.273438 116.804688 L 439.117188 117.371094 L 435.675781 116.191406 L 434.523438 116.753906 L 431.941406 115.871094 L 430.789062 116.4375 L 428.207031 115.550781 L 427.050781 116.117188 L 424.472656 115.234375 L 423.316406 115.796875 L 421.597656 115.207031 L 420.441406 115.773438 L 417.863281 114.890625 L 416.707031 115.457031 L 414.988281 114.867188 L 413.832031 115.429688 L 412.113281 114.839844 L 410.957031 115.40625 L 408.378906 114.523438 L 407.222656 115.085938 L 406.363281 114.792969 L 405.207031 115.359375 L 403.488281 114.769531 L 402.332031 115.335938 L 400.613281 114.746094 L 399.457031 115.308594 L 397.738281 114.71875 L 396.582031 115.285156 L 394.863281 114.695312 L 393.707031 115.261719 L 392.847656 114.964844 L 391.695312 115.53125 L 389.972656 114.941406 L 388.820312 115.507812 L 387.957031 115.210938 L 386.804688 115.777344 L 385.945312 115.484375 L 384.789062 116.046875 L 383.070312 115.460938 L 381.914062 116.023438 L 381.054688 115.730469 L 379.898438 116.296875 L 379.039062 116 L 377.882812 116.566406 L 377.023438 116.269531 L 375.871094 116.835938 L 375.007812 116.542969 L 373.855469 117.105469 L 372.996094 116.8125 L 371.839844 117.378906 L 370.980469 117.082031 L 369.824219 117.648438 L 368.964844 117.351562 L 367.808594 117.917969 L 366.949219 117.625 L 365.796875 118.1875 L 364.933594 117.894531 L 363.78125 118.460938 L 362.921875 118.164062 L 361.765625 118.730469 L 360.90625 118.433594 L 359.75 119 L 358.890625 118.707031 L 356.582031 119.835938 L 355.722656 119.542969 L 354.566406 120.105469 L 353.707031 119.8125 L 352.550781 120.378906 L 351.691406 120.082031 L 349.382812 121.210938 L 348.523438 120.917969 L 347.367188 121.484375 L 346.507812 121.1875 L 344.199219 122.320312 L 343.335938 122.023438 L 341.027344 123.15625 L 340.167969 122.859375 L 337.859375 123.992188 L 337 123.695312 L 334.6875 124.828125 L 333.828125 124.53125 L 331.519531 125.664062 L 330.660156 125.367188 L 328.347656 126.5 L 327.488281 126.203125 L 324.023438 127.898438 L 323.164062 127.605469 L 319.699219 129.300781 L 318.839844 129.003906 L 315.375 130.703125 L 314.515625 130.40625 L 309.898438 132.667969 L 309.035156 132.375 L 302.109375 135.765625 L 301.246094 135.46875 L 292.007812 139.992188 L 291.148438 139.699219 L 269.207031 150.4375 L 268.914062 151.296875 L 259.675781 155.820312 L 259.378906 156.679688 L 253.605469 159.507812 L 253.3125 160.367188 L 248.691406 162.628906 L 248.398438 163.488281 L 244.933594 165.183594 L 244.636719 166.042969 L 241.171875 167.738281 L 240.878906 168.601562 L 237.414062 170.296875 L 237.121094 171.15625 L 234.808594 172.285156 L 234.515625 173.144531 L 232.207031 174.277344 L 231.910156 175.136719 L 229.601562 176.265625 L 229.304688 177.128906 L 226.996094 178.257812 L 226.703125 179.117188 L 224.390625 180.25 L 224.097656 181.109375 L 222.941406 181.675781 L 222.648438 182.535156 L 220.339844 183.664062 L 220.042969 184.523438 L 218.890625 185.089844 L 218.59375 185.949219 L 216.285156 187.082031 L 215.988281 187.941406 L 214.835938 188.503906 L 214.539062 189.367188 L 212.230469 190.496094 L 211.9375 191.355469 L 210.78125 191.921875 L 210.488281 192.78125 L 209.332031 193.347656 L 209.035156 194.207031 L 207.882812 194.773438 L 207.585938 195.632812 L 206.433594 196.199219 L 206.136719 197.058594 L 204.984375 197.621094 L 204.6875 198.484375 L 203.535156 199.046875 L 203.238281 199.910156 L 202.082031 200.472656 L 201.789062 201.332031 L 200.632812 201.898438 L 200.339844 202.757812 L 199.183594 203.324219 L 198.890625 204.183594 L 197.734375 204.75 L 197.441406 205.609375 L 196.285156 206.175781 L 195.992188 207.035156 L 194.835938 207.601562 L 194.542969 208.460938 L 193.386719 209.027344 L 193.089844 209.886719 L 191.9375 210.449219 L 191.347656 212.171875 L 190.191406 212.738281 L 189.898438 213.597656 L 188.742188 214.160156 L 188.449219 215.023438 L 187.292969 215.585938 L 186.703125 217.308594 L 185.550781 217.871094 L 185.253906 218.730469 L 184.097656 219.296875 L 183.511719 221.019531 L 182.355469 221.582031 L 181.765625 223.304688 L 180.609375 223.867188 L 180.316406 224.726562 L 179.160156 225.292969 L 178.570312 227.015625 L 177.417969 227.578125 L 176.828125 229.300781 L 175.671875 229.863281 L 175.082031 231.585938 L 173.929688 232.148438 L 173.339844 233.871094 L 172.183594 234.433594 L 171.59375 236.15625 L 170.441406 236.71875 L 169.851562 238.441406 L 168.695312 239.007812 L 167.8125 241.585938 L 166.65625 242.152344 L 166.066406 243.871094 L 164.910156 244.4375 L 164.027344 247.015625 L 162.871094 247.582031 L 161.988281 250.164062 L 160.832031 250.726562 L 159.949219 253.308594 L 158.792969 253.871094 L 157.910156 256.453125 L 156.753906 257.019531 L 155.578125 260.457031 L 154.421875 261.023438 L 153.242188 264.464844 L 152.085938 265.03125 L 150.613281 269.328125 L 149.460938 269.894531 L 147.984375 274.195312 L 146.832031 274.761719 L 145.0625 279.921875 L 143.90625 280.484375 L 141.550781 287.367188 L 140.394531 287.929688 L 137.152344 297.390625 L 135.996094 297.957031 L 123.617188 334.078125 L 124.183594 335.234375 L 121.234375 343.835938 L 121.800781 344.988281 L 119.441406 351.871094 L 120.007812 353.023438 L 118.238281 358.183594 L 118.804688 359.339844 L 117.332031 363.640625 L 117.894531 364.792969 L 116.714844 368.234375 L 117.28125 369.390625 L 116.101562 372.828125 L 116.667969 373.984375 L 115.488281 377.425781 L 116.054688 378.578125 L 115.171875 381.160156 L 115.734375 382.3125 L 114.851562 384.894531 L 115.417969 386.050781 L 114.828125 387.769531 L 115.390625 388.925781 L 114.507812 391.503906 L 115.074219 392.660156 L 114.1875 395.238281 L 114.753906 396.394531 L 114.164062 398.113281 L 114.730469 399.269531 L 113.84375 401.847656 L 114.410156 403.003906 L 113.820312 404.722656 L 114.386719 405.878906 L 113.796875 407.597656 L 114.363281 408.753906 L 113.773438 410.472656 L 114.339844 411.628906 L 114.042969 412.488281 L 114.609375 413.644531 L 114.019531 415.363281 L 114.585938 416.519531 L 113.996094 418.238281 L 114.558594 419.394531 L 114.265625 420.253906 L 114.832031 421.40625 L 114.242188 423.128906 L 114.804688 424.28125 L 114.511719 425.144531 L 115.078125 426.296875 L 114.488281 428.019531 L 115.054688 429.171875 L 114.757812 430.03125 L 115.324219 431.1875 L 115.027344 432.046875 L 115.59375 433.203125 L 115.003906 434.921875 L 115.570312 436.078125 L 115.273438 436.9375 L 115.839844 438.09375 L 115.546875 438.953125 L 116.109375 440.105469 L 115.816406 440.96875 L 116.382812 442.121094 L 116.085938 442.980469 L 116.652344 444.136719 L 116.355469 444.996094 L 116.921875 446.152344 L 116.628906 447.011719 L 117.191406 448.167969 L 116.898438 449.027344 L 117.464844 450.179688 L 117.167969 451.042969 L 117.734375 452.195312 L 117.4375 453.054688 L 118.003906 454.210938 L 117.710938 455.070312 L 118.273438 456.226562 L 117.980469 457.085938 L 119.109375 459.394531 L 118.816406 460.253906 L 119.382812 461.410156 L 119.085938 462.269531 L 119.652344 463.425781 L 119.355469 464.285156 L 120.488281 466.59375 L 120.191406 467.453125 L 120.757812 468.609375 L 120.464844 469.46875 L 121.59375 471.777344 L 121.300781 472.640625 L 121.863281 473.792969 L 121.570312 474.652344 L 122.699219 476.964844 L 122.40625 477.824219 L 123.535156 480.132812 L 123.242188 480.992188 L 124.371094 483.304688 L 124.078125 484.164062 L 125.773438 487.628906 L 125.476562 488.488281 L 126.609375 490.796875 L 126.3125 491.65625 L 128.007812 495.121094 L 127.714844 495.980469 L 129.410156 499.445312 L 129.117188 500.304688 L 130.8125 503.769531 L 130.515625 504.628906 L 133.34375 510.40625 L 133.046875 511.265625 L 135.875 517.039062 L 135.582031 517.898438 L 143.496094 534.066406 L 143.199219 534.925781 L 144.332031 537.234375 L 145.191406 537.53125 L 152.539062 552.542969 L 153.398438 552.835938 L 156.789062 559.765625 L 157.652344 560.0625 L 159.910156 564.679688 L 160.773438 564.976562 L 162.46875 568.441406 L 163.328125 568.734375 L 165.023438 572.199219 L 165.882812 572.492188 L 167.578125 575.957031 L 168.441406 576.253906 L 169.570312 578.5625 L 170.429688 578.855469 L 171.5625 581.167969 L 172.421875 581.460938 L 173.550781 583.769531 L 174.410156 584.066406 L 175.542969 586.375 L 176.402344 586.671875 L 177.53125 588.980469 L 178.394531 589.273438 L 178.957031 590.429688 L 179.816406 590.722656 L 180.949219 593.035156 L 181.808594 593.328125 L 182.375 594.484375 L 183.234375 594.777344 L 183.800781 595.933594 L 184.660156 596.226562 L 185.789062 598.539062 L 186.648438 598.832031 L 187.214844 599.988281 L 188.074219 600.28125 L 188.640625 601.4375 L 189.5 601.730469 L 190.066406 602.886719 L 190.925781 603.179688 L 191.492188 604.335938 L 192.351562 604.628906 L 192.917969 605.785156 L 193.777344 606.078125 L 194.339844 607.234375 L 195.203125 607.527344 L 195.765625 608.683594 L 196.628906 608.980469 L 197.191406 610.132812 L 198.050781 610.429688 L 198.617188 611.582031 L 199.476562 611.878906 L 200.042969 613.03125 L 200.902344 613.328125 L 201.46875 614.480469 L 202.328125 614.777344 L 202.894531 615.933594 L 203.753906 616.226562 L 204.320312 617.382812 L 205.179688 617.675781 L 205.746094 618.832031 L 207.464844 619.421875 L 208.03125 620.574219 L 208.890625 620.871094 L 209.453125 622.023438 L 211.175781 622.613281 L 211.742188 623.769531 L 212.601562 624.0625 L 213.164062 625.21875 L 214.886719 625.808594 L 215.449219 626.964844 L 216.3125 627.257812 L 216.875 628.414062 L 218.597656 629.003906 L 219.160156 630.15625 L 220.882812 630.746094 L 221.445312 631.902344 L 222.308594 632.195312 L 222.871094 633.351562 L 224.59375 633.941406 L 225.15625 635.09375 L 226.878906 635.683594 L 227.441406 636.839844 L 229.164062 637.429688 L 229.730469 638.582031 L 231.449219 639.171875 L 232.015625 640.328125 L 234.59375 641.210938 L 235.160156 642.367188 L 236.878906 642.957031 L 237.445312 644.113281 L 240.023438 644.996094 L 240.589844 646.152344 L 242.308594 646.742188 L 242.875 647.894531 L 245.457031 648.78125 L 246.019531 649.933594 L 249.460938 651.113281 L 250.027344 652.269531 L 252.605469 653.152344 L 253.171875 654.308594 L 256.613281 655.484375 L 257.175781 656.640625 L 260.617188 657.820312 L 261.183594 658.976562 L 264.621094 660.152344 L 265.1875 661.308594 L 269.488281 662.78125 L 270.054688 663.9375 L 275.214844 665.707031 L 275.777344 666.859375 L 282.660156 669.21875 L 283.226562 670.375 L 290.964844 673.027344 L 291.53125 674.179688 L 331.09375 687.738281 L 332.246094 687.175781 L 339.988281 689.828125 L 341.140625 689.261719 L 347.164062 691.324219 L 348.316406 690.761719 L 354.339844 692.824219 L 355.492188 692.257812 L 359.792969 693.730469 L 360.949219 693.167969 L 364.386719 694.347656 L 365.542969 693.78125 L 368.984375 694.960938 L 370.136719 694.394531 L 372.71875 695.277344 L 373.871094 694.714844 L 377.3125 695.894531 L 378.46875 695.328125 L 381.046875 696.210938 L 382.203125 695.644531 L 383.921875 696.234375 L 385.078125 695.671875 L 387.65625 696.554688 L 388.8125 695.988281 L 390.53125 696.578125 L 391.6875 696.015625 L 393.40625 696.601562 L 394.5625 696.039062 L 397.140625 696.921875 L 398.296875 696.355469 L 400.015625 696.945312 L 401.171875 696.382812 L 402.03125 696.675781 L 403.1875 696.109375 L 404.90625 696.699219 L 406.0625 696.136719 L 407.78125 696.722656 L 408.9375 696.160156 L 410.65625 696.75 L 411.8125 696.183594 L 412.671875 696.476562 L 413.828125 695.914062 L 415.546875 696.503906 L 416.703125 695.9375 L 418.421875 696.527344 L 419.578125 695.960938 L 420.4375 696.257812 L 421.589844 695.691406 L 422.449219 695.984375 L 423.605469 695.421875 L 425.324219 696.011719 L 426.480469 695.445312 L 427.339844 695.738281 L 428.496094 695.175781 L 430.214844 695.761719 L 431.371094 695.199219 L 432.230469 695.492188 L 433.386719 694.929688 L 434.246094 695.222656 L 435.398438 694.65625 L 436.261719 694.953125 L 437.414062 694.386719 L 438.273438 694.679688 L 439.429688 694.117188 L 440.289062 694.410156 L 441.445312 693.84375 L 442.304688 694.140625 L 443.460938 693.574219 L 444.320312 693.871094 L 445.472656 693.304688 L 446.335938 693.597656 L 447.488281 693.035156 L 448.347656 693.328125 L 449.503906 692.761719 L 450.363281 693.058594 L 451.519531 692.492188 L 452.378906 692.789062 L 453.535156 692.222656 L 454.394531 692.515625 L 456.703125 691.386719 L 457.5625 691.679688 L 458.71875 691.117188 L 459.578125 691.410156 L 460.734375 690.847656 L 461.59375 691.140625 L 463.902344 690.011719 L 464.761719 690.304688 L 465.917969 689.738281 L 466.777344 690.035156 L 469.085938 688.902344 L 469.949219 689.199219 L 471.101562 688.632812 L 471.960938 688.929688 L 474.273438 687.796875 L 475.132812 688.09375 L 477.441406 686.960938 L 478.300781 687.257812 L 480.609375 686.125 L 481.472656 686.421875 L 483.78125 685.289062 L 484.640625 685.585938 L 488.105469 683.890625 L 488.964844 684.183594 L 491.273438 683.054688 L 492.136719 683.347656 L 496.753906 681.085938 L 497.613281 681.382812 L 501.078125 679.683594 L 501.9375 679.980469 L 506.558594 677.71875 L 507.417969 678.015625 L 514.347656 674.621094 L 515.207031 674.917969 L 527.910156 668.699219 L 528.769531 668.992188 L 536.851562 665.035156 L 537.148438 664.175781 L 549.851562 657.957031 L 550.144531 657.097656 L 555.917969 654.273438 L 556.214844 653.410156 L 560.832031 651.152344 L 561.128906 650.289062 L 565.746094 648.03125 L 566.042969 647.167969 L 568.351562 646.039062 L 568.648438 645.179688 L 572.109375 643.484375 L 572.40625 642.625 L 574.714844 641.492188 L 575.011719 640.632812 L 577.320312 639.5 L 577.613281 638.640625 L 579.925781 637.511719 L 580.21875 636.652344 L 582.527344 635.519531 L 582.824219 634.660156 L 583.976562 634.09375 L 584.273438 633.234375 L 586.582031 632.105469 L 586.878906 631.246094 L 589.1875 630.113281 L 589.480469 629.253906 L 590.636719 628.6875 L 590.929688 627.828125 L 592.085938 627.261719 L 592.382812 626.402344 L 594.691406 625.273438 L 594.984375 624.414062 L 596.140625 623.847656 L 596.433594 622.988281 L 597.589844 622.421875 L 597.882812 621.5625 L 599.039062 620.996094 L 599.335938 620.136719 L 600.488281 619.570312 L 600.785156 618.710938 L 601.9375 618.144531 L 602.234375 617.285156 L 603.386719 616.722656 L 603.683594 615.859375 L 604.835938 615.296875 L 605.132812 614.433594 L 606.285156 613.871094 L 606.582031 613.011719 L 607.738281 612.445312 L 608.03125 611.585938 L 609.1875 611.019531 L 609.480469 610.160156 L 610.636719 609.59375 L 610.929688 608.734375 L 612.085938 608.167969 L 612.378906 607.308594 L 613.535156 606.742188 L 613.828125 605.882812 L 614.984375 605.316406 L 615.574219 603.597656 L 616.730469 603.03125 L 617.023438 602.171875 L 618.179688 601.609375 L 618.769531 599.886719 L 619.921875 599.320312 L 620.21875 598.460938 L 621.371094 597.898438 L 621.960938 596.175781 L 623.117188 595.613281 L 623.707031 593.890625 L 624.859375 593.324219 L 625.15625 592.464844 L 626.308594 591.902344 L 626.898438 590.179688 L 628.054688 589.617188 L 628.644531 587.894531 L 629.800781 587.332031 L 630.386719 585.609375 L 631.542969 585.042969 L 632.132812 583.324219 L 633.289062 582.757812 L 634.171875 580.179688 L 635.328125 579.613281 L 635.917969 577.894531 L 637.070312 577.328125 L 637.660156 575.609375 L 638.816406 575.042969 L 639.699219 572.464844 L 640.855469 571.898438 L 641.738281 569.316406 L 642.894531 568.753906 L 643.777344 566.171875 L 644.933594 565.605469 L 646.113281 562.167969 L 647.265625 561.601562 L 648.445312 558.160156 L 649.601562 557.597656 L 650.78125 554.15625 L 651.933594 553.589844 L 653.113281 550.152344 L 654.269531 549.585938 L 655.742188 545.285156 L 656.898438 544.71875 L 658.960938 538.699219 L 660.113281 538.132812 L 662.179688 532.113281 L 663.332031 531.546875 L 666.871094 521.226562 L 668.023438 520.664062 L 679.519531 487.121094 L 678.957031 485.964844 L 682.492188 475.644531 L 681.925781 474.492188 L 684.578125 466.75 L 684.015625 465.59375 L 686.078125 459.574219 L 685.511719 458.421875 L 686.988281 454.121094 L 684.921875 460.140625 L 683.769531 460.707031 L 681.707031 466.726562 L 680.550781 467.292969 L 678.78125 472.453125 L 677.625 473.015625 L 676.449219 476.457031 L 675.292969 477.023438 L 674.113281 480.460938 L 672.960938 481.027344 L 672.074219 483.609375 L 670.921875 484.171875 L 670.035156 486.753906 L 668.882812 487.320312 L 667.996094 489.898438 L 666.84375 490.464844 L 666.253906 492.183594 L 665.097656 492.75 L 664.507812 494.46875 L 663.351562 495.035156 L 663.058594 495.894531 L 661.902344 496.460938 L 661.3125 498.179688 L 660.160156 498.746094 L 659.570312 500.464844 L 658.414062 501.03125 L 658.121094 501.890625 L 656.964844 502.457031 L 656.375 504.175781 L 655.222656 504.742188 L 654.925781 505.601562 L 653.773438 506.167969 L 653.476562 507.027344 L 652.320312 507.59375 L 652.027344 508.453125 L 650.871094 509.019531 L 650.578125 509.878906 L 649.421875 510.441406 L 649.128906 511.304688 L 647.972656 511.867188 L 647.679688 512.726562 L 646.523438 513.292969 L 646.230469 514.152344 L 645.074219 514.71875 L 644.78125 515.578125 L 643.625 516.144531 L 643.328125 517.003906 L 642.175781 517.570312 L 641.878906 518.429688 L 639.570312 519.558594 L 639.277344 520.421875 L 638.121094 520.984375 L 637.828125 521.84375 L 635.515625 522.976562 L 635.222656 523.835938 L 634.066406 524.402344 L 633.773438 525.261719 L 631.464844 526.390625 L 631.167969 527.253906 L 628.859375 528.382812 L 628.5625 529.242188 L 626.253906 530.375 L 625.960938 531.234375 L 622.496094 532.929688 L 622.199219 533.789062 L 619.890625 534.917969 L 619.597656 535.78125 L 614.976562 538.039062 L 614.683594 538.902344 L 610.0625 541.164062 L 609.769531 542.023438 L 598.21875 547.675781 L 597.925781 548.535156 L 594.460938 550.230469 L 593.601562 549.9375 L 578.589844 557.285156 L 577.726562 556.988281 L 571.953125 559.816406 L 571.390625 558.660156 L 571.683594 557.800781 L 572.839844 557.238281 L 581.386719 532.296875 L 580.820312 531.140625 L 582.296875 526.839844 L 581.730469 525.683594 L 582.613281 523.105469 L 582.046875 521.949219 L 582.636719 520.230469 L 582.074219 519.074219 L 582.664062 517.355469 L 582.097656 516.199219 L 582.390625 515.339844 L 581.828125 514.1875 L 582.417969 512.464844 L 581.851562 511.3125 L 582.144531 510.449219 L 581.582031 509.296875 L 581.875 508.4375 L 581.308594 507.28125 L 581.605469 506.421875 L 580.472656 504.113281 L 580.769531 503.25 L 580.203125 502.097656 L 580.5 501.238281 L 578.800781 497.773438 L 579.097656 496.910156 L 571.183594 480.746094 L 570.324219 480.449219 L 569.191406 478.140625 L 568.332031 477.847656 L 567.203125 475.535156 L 566.34375 475.242188 L 565.210938 472.933594 L 564.351562 472.636719 L 563.785156 471.480469 L 562.925781 471.1875 L 562.359375 470.03125 L 561.5 469.738281 L 560.933594 468.582031 L 560.074219 468.289062 L 559.511719 467.132812 L 558.648438 466.839844 L 558.085938 465.683594 L 557.226562 465.390625 L 556.660156 464.234375 L 554.9375 463.644531 L 554.375 462.488281 L 552.652344 461.902344 L 552.089844 460.746094 L 550.367188 460.15625 L 549.804688 459 L 548.082031 458.410156 L 547.519531 457.257812 L 545.796875 456.667969 L 545.234375 455.511719 L 541.792969 454.332031 L 541.226562 453.179688 L 536.066406 451.410156 L 535.5 450.253906 L 515.71875 443.476562 L 514.566406 444.042969 L 510.265625 442.566406 L 509.109375 443.132812 L 505.671875 441.953125 L 504.515625 442.519531 L 501.9375 441.632812 L 500.78125 442.199219 L 499.0625 441.609375 L 497.90625 442.175781 L 497.046875 441.882812 L 495.890625 442.445312 L 494.171875 441.855469 L 493.015625 442.421875 L 492.15625 442.128906 L 491 442.691406 L 490.140625 442.398438 L 488.988281 442.964844 L 488.125 442.667969 L 486.972656 443.234375 L 486.113281 442.9375 L 484.957031 443.503906 L 484.097656 443.210938 L 482.941406 443.773438 L 482.082031 443.480469 L 479.773438 444.609375 L 478.914062 444.316406 L 476.601562 445.445312 L 475.742188 445.152344 L 474.585938 445.71875 L 473.726562 445.421875 L 470.261719 447.117188 L 469.402344 446.824219 L 467.09375 447.953125 L 466.234375 447.660156 L 462.769531 449.355469 L 461.910156 449.058594 L 457.289062 451.320312 L 456.429688 451.027344 L 447.191406 455.546875 L 446.332031 455.253906 L 431.320312 462.601562 L 430.457031 462.308594 L 424.683594 465.132812 L 423.824219 464.839844 L 419.207031 467.101562 L 418.34375 466.804688 L 414.882812 468.5 L 414.019531 468.207031 L 411.710938 469.335938 L 410.851562 469.042969 L 408.542969 470.171875 L 407.683594 469.878906 L 406.527344 470.445312 L 405.667969 470.148438 L 404.511719 470.714844 L 403.652344 470.417969 L 401.34375 471.550781 L 400.484375 471.253906 L 399.328125 471.820312 L 398.46875 471.527344 L 397.3125 472.089844 L 396.453125 471.796875 L 395.296875 472.363281 L 393.578125 471.773438 L 392.421875 472.335938 L 391.5625 472.042969 L 390.410156 472.609375 L 389.546875 472.3125 L 388.394531 472.878906 L 386.671875 472.289062 L 385.519531 472.855469 L 383.796875 472.265625 L 382.644531 472.828125 L 380.921875 472.242188 L 379.769531 472.804688 L 377.1875 471.921875 L 376.035156 472.488281 L 373.453125 471.601562 L 372.300781 472.167969 L 365.417969 469.808594 L 364.265625 470.375 L 355.664062 467.425781 L 355.097656 466.273438 L 349.078125 464.210938 L 348.511719 463.054688 L 345.933594 462.171875 L 345.367188 461.015625 L 342.785156 460.132812 L 342.222656 458.976562 L 340.5 458.386719 L 339.9375 457.230469 L 338.214844 456.640625 L 337.652344 455.488281 L 335.929688 454.898438 L 335.367188 453.742188 L 334.503906 453.449219 L 333.941406 452.292969 L 333.082031 452 L 332.515625 450.84375 L 331.65625 450.550781 L 331.089844 449.394531 L 330.230469 449.101562 L 329.664062 447.945312 L 328.804688 447.648438 L 327.671875 445.339844 L 326.8125 445.046875 L 326.25 443.890625 L 325.386719 443.597656 L 323.691406 440.132812 L 322.832031 439.835938 L 321.703125 437.527344 L 320.839844 437.234375 L 318.015625 431.457031 L 317.15625 431.164062 L 312.632812 421.925781 L 312.925781 421.066406 L 309.535156 414.136719 L 309.832031 413.277344 L 308.136719 409.8125 L 308.429688 408.953125 L 307.300781 406.644531 L 307.59375 405.78125 L 306.464844 403.472656 L 306.757812 402.613281 L 305.628906 400.304688 L 305.921875 399.441406 L 304.792969 397.132812 L 305.085938 396.273438 L 304.519531 395.117188 L 304.816406 394.257812 L 304.25 393.105469 L 304.546875 392.242188 L 303.980469 391.089844 L 304.273438 390.230469 L 303.144531 387.917969 L 303.4375 387.058594 L 302.875 385.90625 L 303.464844 384.183594 L 302.898438 383.03125 L 303.191406 382.167969 L 302.628906 381.015625 L 302.921875 380.15625 L 302.355469 379 L 302.652344 378.140625 L 302.085938 376.984375 L 302.382812 376.125 L 301.816406 374.96875 L 302.40625 373.25 L 301.839844 372.09375 L 302.136719 371.234375 L 301.570312 370.082031 L 302.160156 368.359375 L 301.59375 367.207031 L 302.183594 365.484375 L 301.617188 364.332031 L 302.207031 362.609375 L 301.640625 361.457031 L 302.230469 359.734375 L 301.667969 358.582031 L 302.257812 356.859375 L 301.691406 355.707031 L 302.28125 353.984375 L 301.714844 352.832031 L 302.597656 350.25 L 302.035156 349.097656 L 302.917969 346.515625 L 302.351562 345.363281 L 303.238281 342.78125 L 302.671875 341.625 L 303.851562 338.1875 L 303.285156 337.03125 L 304.757812 332.730469 L 304.195312 331.578125 L 305.964844 326.417969 L 305.398438 325.261719 L 307.753906 318.382812 L 307.191406 317.226562 L 317.210938 287.984375 L 318.367188 287.417969 L 320.726562 280.539062 L 321.878906 279.972656 L 323.355469 275.671875 L 324.507812 275.109375 L 325.984375 270.808594 L 327.136719 270.242188 L 328.316406 266.800781 L 329.472656 266.238281 L 330.355469 263.65625 L 331.511719 263.09375 L 332.394531 260.511719 L 333.550781 259.945312 L 334.433594 257.367188 L 335.589844 256.800781 L 336.179688 255.082031 L 337.332031 254.515625 L 337.921875 252.796875 L 339.078125 252.230469 L 339.960938 249.648438 L 341.117188 249.085938 L 341.410156 248.226562 L 342.566406 247.660156 L 343.15625 245.941406 L 344.308594 245.375 L 344.898438 243.652344 L 346.054688 243.089844 L 346.347656 242.230469 L 347.503906 241.664062 L 348.09375 239.945312 L 349.25 239.378906 L 349.542969 238.519531 L 350.699219 237.953125 L 351.289062 236.234375 L 352.441406 235.667969 L 352.738281 234.808594 L 353.890625 234.242188 L 354.1875 233.382812 L 355.339844 232.816406 L 355.636719 231.957031 L 356.789062 231.390625 L 357.085938 230.53125 L 358.242188 229.964844 L 358.535156 229.105469 L 359.691406 228.539062 L 359.984375 227.679688 L 361.140625 227.117188 L 361.433594 226.253906 L 362.589844 225.691406 L 362.882812 224.832031 L 364.039062 224.265625 L 364.332031 223.40625 L 365.488281 222.839844 L 365.78125 221.980469 L 366.9375 221.414062 L 367.234375 220.554688 L 369.542969 219.421875 L 369.835938 218.5625 L 370.992188 218 L 371.285156 217.136719 L 373.597656 216.007812 L 373.890625 215.148438 L 375.046875 214.582031 L 375.339844 213.722656 L 377.648438 212.589844 L 377.945312 211.730469 L 380.253906 210.601562 L 380.550781 209.742188 L 382.859375 208.609375 L 383.152344 207.75 L 386.617188 206.054688 L 386.914062 205.195312 L 390.378906 203.5 L 390.671875 202.640625 L 395.292969 200.378906 L 395.585938 199.515625 L 404.824219 194.996094 L 405.117188 194.136719 L 416.667969 188.480469 L 417.527344 188.777344 L 426.765625 184.253906 L 427.625 184.550781 L 432.246094 182.289062 L 433.105469 182.582031 L 436.570312 180.886719 L 437.429688 181.183594 L 440.894531 179.484375 L 441.753906 179.78125 L 445.21875 178.085938 L 446.078125 178.378906 L 448.386719 177.25 L 449.246094 177.542969 L 451.558594 176.414062 L 452.417969 176.707031 L 453.574219 176.144531 L 454.433594 176.4375 L 456.742188 175.308594 L 457.601562 175.601562 L 459.910156 174.472656 L 460.773438 174.765625 L 461.925781 174.199219 L 462.785156 174.496094 L 463.941406 173.929688 L 464.800781 174.226562 L 467.109375 173.09375 L 467.972656 173.390625 L 469.125 172.824219 L 469.984375 173.117188 L 471.140625 172.554688 L 472 172.847656 L 473.15625 172.28125 L 474.015625 172.578125 L 475.171875 172.011719 L 476.03125 172.308594 L 477.183594 171.742188 L 478.046875 172.035156 L 479.199219 171.472656 L 480.058594 171.765625 L 481.214844 171.199219 L 482.074219 171.496094 L 483.230469 170.929688 L 484.089844 171.226562 L 485.246094 170.660156 L 486.964844 171.25 L 488.121094 170.683594 L 488.980469 170.980469 L 490.132812 170.414062 L 490.996094 170.707031 L 492.148438 170.144531 L 493.871094 170.734375 L 495.023438 170.167969 L 496.746094 170.757812 L 497.898438 170.191406 L 498.757812 170.488281 L 499.914062 169.921875 L 501.632812 170.511719 L 502.789062 169.945312 L 504.507812 170.535156 L 505.664062 169.96875 L 507.382812 170.558594 L 508.539062 169.992188 L 511.117188 170.878906 L 512.273438 170.3125 L 513.992188 170.902344 L 515.148438 170.335938 L 517.726562 171.222656 L 518.882812 170.65625 L 521.464844 171.539062 L 522.617188 170.976562 L 526.058594 172.152344 L 527.214844 171.589844 L 529.792969 172.472656 L 530.949219 171.90625 L 535.25 173.382812 L 536.402344 172.816406 L 540.703125 174.289062 L 541.859375 173.726562 L 547.878906 175.789062 L 549.035156 175.222656 L 559.355469 178.761719 L 560.507812 178.195312 L 579.429688 184.679688 L 579.996094 185.835938 L 591.175781 189.667969 L 591.742188 190.820312 L 597.761719 192.882812 L 598.328125 194.039062 L 603.488281 195.808594 L 604.050781 196.960938 L 608.351562 198.4375 L 608.917969 199.589844 L 613.21875 201.066406 L 613.78125 202.21875 L 616.363281 203.105469 L 616.929688 204.257812 L 617.222656 203.398438 L 616.363281 203.105469 L 615.796875 201.949219 L 614.078125 201.359375 L 613.511719 200.203125 L 612.652344 199.910156 L 612.085938 198.753906 L 611.226562 198.460938 L 610.660156 197.304688 L 609.800781 197.011719 L 609.234375 195.855469 L 608.375 195.5625 L 607.8125 194.40625 L 606.949219 194.113281 L 606.386719 192.957031 L 605.527344 192.664062 L 604.960938 191.507812 L 604.101562 191.210938 L 603.535156 190.058594 L 601.816406 189.46875 L 601.25 188.3125 L 600.390625 188.019531 L 599.824219 186.863281 L 598.964844 186.570312 L 598.398438 185.414062 L 597.539062 185.121094 L 596.972656 183.964844 L 595.253906 183.375 L 594.6875 182.21875 L 593.828125 181.925781 L 593.261719 180.769531 L 591.542969 180.179688 L 590.976562 179.027344 L 589.257812 178.4375 L 588.691406 177.28125 L 587.832031 176.988281 L 587.265625 175.832031 L 585.546875 175.242188 L 584.980469 174.089844 L 583.261719 173.5 L 582.695312 172.34375 L 580.976562 171.753906 L 580.410156 170.601562 L 578.691406 170.011719 L 578.125 168.855469 L 575.546875 167.972656 L 574.980469 166.816406 L 573.261719 166.226562 L 572.695312 165.070312 L 570.113281 164.1875 L 569.550781 163.03125 L 566.96875 162.148438 L 566.402344 160.992188 L 563.824219 160.109375 L 563.257812 158.953125 L 559.816406 157.777344 L 559.253906 156.621094 L 556.671875 155.738281 L 556.109375 154.582031 L 551.808594 153.109375 L 551.242188 151.953125 L 547.800781 150.773438 L 547.238281 149.621094 L 542.078125 147.851562 L 541.511719 146.695312 L 533.769531 144.042969 L 533.207031 142.886719 L 524.605469 139.941406 L 524.039062 138.785156 Z M 486.199219 125.816406 " fill-opacity="1" fill-rule="nonzero"/></g></g></g></svg>